<svg fill="#fff" xmlns="http://www.w3.org/2000/svg" viewBox="0 0 150 75" >
<path d="M39.5,49.8c-0.1,0-0.5,0-1.3,0v23.1c0.8,0,1.2,0,1.3,0c3.2,0,5.6-1.3,7.2-3.8c1.3-2.2,2-5,2-8.3c0-2-0.3-3.8-0.8-5.3
	C46.4,51.7,43.7,49.8,39.5,49.8z"/>
<path d="M33.4,61.3c0.1,0,0.5,0,1.3,0V38.2c-0.8,0-1.2,0-1.3,0c-3.2,0-5.6,1.3-7.2,3.8c-1.3,2.2-2,5-2,8.3c0,2,0.3,3.8,0.8,5.3
	C26.4,59.4,29.2,61.3,33.4,61.3z"/>
<path d="M20.7,1.3v6.1H9.4v3.1h9.4v5.8H9.4v3.1h11.3v6.1H3.1V1.3H20.7z"/>
<path d="M52.3,1.3L40.9,26L29.5,1.3C29.5,1.3,52.3,1.3,52.3,1.3z M50.3,2.6H31.5L40.9,23L50.3,2.6L50.3,2.6z"/>
<path d="M79,1.3v6.1H67.7v3.1h9.4v5.8h-9.4v3.1H79v6.1H61.4V1.3H79z"/>
<path d="M89.9,1.3h1.4l16.9,16.4V1.3h1.3v24.2H89.9C89.9,25.5,89.9,1.3,89.9,1.3z"/>
<path d="M127.8,7.5h-9.1V1.3h19.5v6.1h-9.1v18.1h-1.3L127.8,7.5L127.8,7.5z"/>
<path d="M17.1,43.7c1,0.5,1.9,1.3,2.5,2.3c0.6,1,0.9,2.1,0.9,3.3c0,1.1-0.3,2.2-0.9,3.1c-0.6,1-1.5,1.7-2.5,2.3
	c1.3,0.4,2.4,1.2,3.2,2.3c0.8,1,1.3,2.3,1.3,3.7c0,1.2-0.3,2.3-0.9,3.3c-0.6,1-1.4,1.8-2.4,2.4c-0.5,0.3-1.1,0.5-1.7,0.6
	c-0.6,0.1-1.5,0.2-2.5,0.2c-0.7,0-4.3,0-10.7,0V43h10.1C15.3,43.2,16.5,43.4,17.1,43.7L17.1,43.7z"/>
<path d="M51.5,58.3c0.6,0,5.1,0,5.7,0c0,1.3,0.4,2.3,1.2,3c0.8,0.7,1.9,1,3.4,1c1.2,0,2.2-0.2,2.8-0.6c0.7-0.4,1-1,1-1.8
	c0-0.7-0.3-1.2-1.1-1.5c-0.7-0.3-1.4-0.5-2.1-0.6c-0.7-0.1-1.1-0.2-1.3-0.2c-1.6-0.3-3.1-0.7-4.6-1.3c-1.3-0.5-2.4-1.2-3.3-2.3
	c-0.9-1-1.3-2.4-1.3-4s0.4-3.1,1.3-4.2c0.9-1.2,2.1-2,3.5-2.6c1.5-0.6,3.2-0.9,4.8-0.9c2.1,0,3.9,0.4,5.5,1.2c1.5,0.8,2.8,2,3.6,3.6
	c0.4,0.7,0.7,1.4,0.8,2.2c0.1,0.7,0.1,1.4,0.1,2.1c-0.6,0-5.1,0-5.7,0c0-1.3-0.3-2.2-1-2.8s-1.7-0.9-3.1-0.9c-1.1,0-2,0.2-2.6,0.6
	c-0.6,0.4-0.9,0.9-0.9,1.6c0,0.7,0.4,1.3,1.3,1.6c1,0.4,2.1,0.7,3.2,0.9c2.1,0.4,3.7,0.8,4.9,1.2c1.2,0.4,2.2,1.1,3,2
	c0.9,1,1.3,2.3,1.3,4.1c0,1.7-0.5,3.1-1.4,4.3c-0.9,1.2-2.2,2.1-3.7,2.8c-1.6,0.7-3.2,1-4.9,1c-3.4,0-5.9-0.8-7.8-2.4
	C52.4,63.9,51.5,61.5,51.5,58.3L51.5,58.3z"/>
<path d="M86.2,49.2H77V43h19.5v6.1h-9.1v18.1h-1.2V49.2z"/>
<path d="M120.7,43v6.1h-11.3v3.1h9.4V58h-9.4v3.1h11.3v6.1h-17.6V43L120.7,43L120.7,43z"/>
<path d="M128.2,67.2V43c5.7,0,8.8,0,9.4,0c2,0,3.7,0.4,4.9,1.1c1.2,0.7,2.2,1.6,2.9,2.8c0.7,1.2,1.1,2.6,1,4c0,1.8-0.6,3.5-1.7,4.8
	c-1.1,1.4-2.5,2.4-4.2,2.8c0.4,0.6,2.5,3.4,6.2,8.6L128.2,67.2L128.2,67.2z M129.5,57.6h8.9l-8.9-12.5V57.6z M144.4,65.9l-5.1-7
	l-1.1,0h-8.7v7H144.4z M139.9,57.5c1.5-0.3,2.9-1.1,3.9-2.3c1-1.2,1.6-2.7,1.5-4.2c0-1.2-0.3-2.4-0.9-3.5c-0.6-1-1.5-1.9-2.6-2.4
	c-1-0.5-2.4-0.8-4-0.8c-0.5,0-2.9,0-7.3,0C136.1,52.2,139.2,56.6,139.9,57.5z"/>
</svg>
